<?xml version="1.0" encoding="UTF-8"?>
<svg width="92px" height="108px" viewBox="0 0 92 108" version="1.1" xmlns="http://www.w3.org/2000/svg" xmlns:xlink="http://www.w3.org/1999/xlink">
    <!-- Generator: Sketch 50 (54983) - http://www.bohemiancoding.com/sketch -->
    <title>Group</title>
    <desc>Created with Sketch.</desc>
    <defs>
        <polygon id="path-1" points="0.0231932773 0.150442105 82.4188571 0.150442105 82.4188571 28.9534737 0.0231932773 28.9534737"></polygon>
    </defs>
    <g id="Design-Dekstop" stroke="none" stroke-width="1" fill="none" fill-rule="evenodd">
        <g id="Startseite-Head2" transform="translate(-676.000000, -44.000000)">
            <g id="Group" transform="translate(676.000000, 44.000000)">
                <g id="SK-Logo_weiß">
                    <g>
                        <path d="M9.34263866,47.736 L9.34263866,35.6941895 L17.7471092,35.6941895 L17.7471092,42.0320842 C19.5248739,42.4277053 22.5144874,43.0616842 26.2323697,43.0616842 C31.4844874,43.0616842 36.414605,41.7941053 36.414605,37.0409684 C36.414605,26.0291368 9.98895798,31.9710316 9.98895798,14.2253053 C9.98895798,4.08467368 18.7165882,0.202736842 28.414084,0.202736842 C33.990521,0.202736842 40.0509244,1.47031579 44.0915798,2.81709474 L44.0915798,14.6209263 L35.5255294,14.6209263 L35.5255294,8.12463158 C33.9093445,7.88741053 31.2425042,7.49103158 28.6564538,7.49103158 C23.8883025,7.49103158 19.0401345,8.83781053 19.0401345,13.2741474 C19.0401345,23.5731789 45.4657815,18.0276632 45.4657815,36.4066105 C45.4657815,46.9436211 36.6565882,50.3496 26.7978992,50.3496 C20.3331597,50.3496 14.0296134,48.9243789 9.34263866,47.736" id="Fill-1" fill="#FFFFFE"></path>
                        <polyline id="Fill-2" fill="#FFFFFE" points="49.2864874 25.7115789 49.2864874 25.1571789 65.3683193 8.28303158 60.0342521 8.28303158 60.0342521 1.15313684 81.6117311 1.15313684 81.6117311 8.44181053 75.8733277 8.44181053 60.5189916 24.8407579 75.3885882 42.1112842 82.4192437 42.1112842 82.4192437 49.3995789 69.4082017 49.3995789 49.2864874 25.7115789"></polyline>
                    </g>
                </g>
            </g>
        </g>
    </g>
</svg>