<?xml version="1.0" encoding="UTF-8"?>
<svg width="92px" height="108px" viewBox="0 0 92 108" version="1.1" xmlns="http://www.w3.org/2000/svg" xmlns:xlink="http://www.w3.org/1999/xlink">
    <!-- Generator: Sketch 50 (54983) - http://www.bohemiancoding.com/sketch -->
    <title>Group</title>
    <desc>Created with Sketch.</desc>
    <defs>
        <polygon id="path-1" points="0.0231932773 0.150442105 82.4188571 0.150442105 82.4188571 28.9534737 0.0231932773 28.9534737"></polygon>
    </defs>
    <g id="Design-Dekstop" stroke="none" stroke-width="1" fill="none" fill-rule="evenodd">
        <g id="Startseite-Head2" transform="translate(-676.000000, -44.000000)">
            <g id="Group" transform="translate(676.000000, 44.000000)">
                <g id="SK-Logo_weiß">
                    <g>
                        <path d="M9.34263866,47.736 L9.34263866,35.6941895 L17.7471092,35.6941895 L17.7471092,42.0320842 C19.5248739,42.4277053 22.5144874,43.0616842 26.2323697,43.0616842 C31.4844874,43.0616842 36.414605,41.7941053 36.414605,37.0409684 C36.414605,26.0291368 9.98895798,31.9710316 9.98895798,14.2253053 C9.98895798,4.08467368 18.7165882,0.202736842 28.414084,0.202736842 C33.990521,0.202736842 40.0509244,1.47031579 44.0915798,2.81709474 L44.0915798,14.6209263 L35.5255294,14.6209263 L35.5255294,8.12463158 C33.9093445,7.88741053 31.2425042,7.49103158 28.6564538,7.49103158 C23.8883025,7.49103158 19.0401345,8.83781053 19.0401345,13.2741474 C19.0401345,23.5731789 45.4657815,18.0276632 45.4657815,36.4066105 C45.4657815,46.9436211 36.6565882,50.3496 26.7978992,50.3496 C20.3331597,50.3496 14.0296134,48.9243789 9.34263866,47.736" id="Fill-1" fill="#FFFFFE"></path>
                        <polyline id="Fill-2" fill="#FFFFFE" points="49.2864874 25.7115789 49.2864874 25.1571789 65.3683193 8.28303158 60.0342521 8.28303158 60.0342521 1.15313684 81.6117311 1.15313684 81.6117311 8.44181053 75.8733277 8.44181053 60.5189916 24.8407579 75.3885882 42.1112842 82.4192437 42.1112842 82.4192437 49.3995789 69.4082017 49.3995789 49.2864874 25.7115789"></polyline>
                        <path d="M22.5821345,67.0206316 C22.5821345,63.3933474 24.8821345,61.0074947 28.9455966,61.0074947 C30.8242521,61.0074947 32.5494454,61.5141474 33.5459832,62.0215579 L33.5459832,64.9720421 L31.4566555,64.9720421 L31.4566555,63.2057684 C30.7666555,62.9988632 29.9042521,62.8112842 29.0031933,62.8112842 C26.3386723,62.8112842 24.8245378,64.3892211 24.8245378,66.9827368 C24.8245378,69.7448842 26.5497311,71.0605895 29.0418487,71.0605895 C29.8849244,71.0605895 30.6901176,70.8912 31.4566555,70.6467789 L31.4566555,68.2230316 L29.022521,68.2230316 L29.022521,66.5314105 L34.4853109,66.5314105 L34.4853109,68.2230316 L33.5266555,68.2230316 L33.5266555,71.7934737 C32.6449244,72.2815579 30.9966555,72.9011368 28.9262689,72.9011368 C25.1121345,72.9011368 22.5821345,70.8157895 22.5821345,67.0206316" id="Fill-3" fill="#FFFFFE"></path>
                        <polyline id="Fill-4" fill="#FFFFFE" points="35.6697143 70.9472842 37.2418319 70.9472842 37.2418319 62.9613474 35.6697143 62.9613474 35.6697143 61.2325895 41.3246218 61.2325895 41.3246218 62.9613474 39.4649076 62.9613474 39.4649076 70.9472842 43.2415462 70.9472842 43.2415462 69.1056 45.2922185 69.1056 45.2922185 72.6760421 35.6697143 72.6760421 35.6697143 70.9472842"></polyline>
                        <path d="M54.5103866,67.6584 L52.7851933,63.3372632 L51.0793277,67.6584 L54.5103866,67.6584 Z M46.23,70.9472842 L47.61,70.9472842 L50.9065378,62.9613474 L49.3162521,62.9613474 L49.3162521,61.2325895 L54.089042,61.2325895 L58.0952941,70.9472842 L59.4938487,70.9472842 L59.4938487,72.6760421 L54.2610588,72.6760421 L54.2610588,70.9472842 L55.794521,70.9472842 L55.1810588,69.3879158 L50.3893277,69.3879158 L49.7762521,70.9472842 L51.3097143,70.9472842 L51.3097143,72.6760421 L46.23,72.6760421 L46.23,70.9472842 Z" id="Fill-5" fill="#FFFFFE"></path>
                        <path d="M60.6117647,72.2815579 L60.6117647,69.4258105 L62.6052269,69.4258105 L62.6052269,70.9290947 C63.0265714,71.0226947 63.7358992,71.1727579 64.6180168,71.1727579 C65.8634958,71.1727579 67.0328235,70.8718737 67.0328235,69.7448842 C67.0328235,67.1328 60.7648403,68.5421053 60.7648403,64.3331368 C60.7648403,61.9279579 62.8348403,61.0074947 65.1352269,61.0074947 C66.4580168,61.0074947 67.8952269,61.308 68.8538824,61.6270737 L68.8538824,64.4267368 L66.8217647,64.4267368 L66.8217647,62.8859368 C66.4386891,62.8298526 65.8062857,62.7358737 65.1928235,62.7358737 C64.0617647,62.7358737 62.9117647,63.0549474 62.9117647,64.1076632 C62.9117647,66.5507368 69.1797479,65.2350316 69.1797479,69.5940632 C69.1797479,72.0939789 67.0900336,72.9011368 64.7517647,72.9011368 C63.2183025,72.9011368 61.7234958,72.5638737 60.6117647,72.2815579" id="Fill-6" fill="#FFFFFE"></path>
                        <path d="M14.8827395,88.3072421 C17.6427395,88.3072421 18.8696639,86.8039579 18.8696639,84.3233684 C18.8696639,81.8242105 17.6427395,80.3209263 14.8827395,80.3209263 L13.1378319,80.3209263 L13.1378319,88.3072421 L14.8827395,88.3072421 Z M9.34302521,88.3072421 L10.9147563,88.3072421 L10.9147563,80.3209263 L9.34302521,80.3209263 L9.34302521,78.5925474 L14.8827395,78.5925474 C19.118605,78.5925474 21.1503361,80.9223158 21.1503361,84.3233684 C21.1503361,87.7058526 19.118605,90.0356211 14.8827395,90.0356211 L9.34302521,90.0356211 L9.34302521,88.3072421 Z" id="Fill-7" fill="#FFFFFE"></path>
                        <path d="M23.5148908,86.1464842 L23.5148908,80.3209263 L21.9435462,80.3209263 L21.9435462,78.5925474 L27.310084,78.5925474 L27.310084,80.3209263 L25.7387395,80.3209263 L25.7387395,85.9395789 C25.7387395,87.6876632 26.9080672,88.3072421 28.3456639,88.3072421 C29.7828739,88.3072421 30.9332605,87.6683368 30.9332605,85.9202526 L30.9332605,80.3209263 L29.3043193,80.3209263 L29.3043193,78.5925474 L34.5753782,78.5925474 L34.5753782,80.3209263 L33.0032605,80.3209263 L33.0032605,85.9581474 C33.0032605,88.6638316 31.1822017,90.2610947 28.2687395,90.2610947 C25.8152773,90.2610947 23.5148908,89.1155368 23.5148908,86.1464842" id="Fill-8" fill="#FFFFFE"></path>
                        <path d="M35.7752437,89.6415158 L35.7752437,86.7857684 L37.7687059,86.7857684 L37.7687059,88.2890526 C38.190437,88.3826526 38.8993782,88.5323368 39.7814958,88.5323368 C41.0269748,88.5323368 42.1966891,88.2318316 42.1966891,87.1048421 C42.1966891,84.4923789 35.9287059,85.9020632 35.9287059,81.6927158 C35.9287059,79.2875368 37.9987059,78.3674526 40.2987059,78.3674526 C41.6218824,78.3674526 43.0590924,78.6679579 44.0177479,78.9870316 L44.0177479,81.7866947 L41.9856303,81.7866947 L41.9856303,80.2455158 C41.6025546,80.1894316 40.9697647,80.0958316 40.3566891,80.0958316 C39.2252437,80.0958316 38.0756303,80.4149053 38.0756303,81.4676211 C38.0756303,83.9106947 44.3436134,82.5949895 44.3436134,86.9536421 C44.3436134,89.4539368 42.2538992,90.2610947 39.9156303,90.2610947 C38.3821681,90.2610947 36.8873613,89.9238316 35.7752437,89.6415158" id="Fill-9" fill="#FFFFFE"></path>
                        <path d="M45.8225714,84.3805895 C45.8225714,80.5839158 48.4101681,78.3674526 52.0518992,78.3674526 C53.9309412,78.3674526 55.6743025,78.9491368 56.4033445,79.2875368 L56.4033445,82.5764211 L54.2761345,82.5764211 L54.2761345,80.4717474 C53.7198824,80.3209263 52.8953613,80.1894316 52.1667059,80.1894316 C49.7708403,80.1894316 48.1225714,81.6366316 48.1225714,84.2672842 C48.1225714,86.9733474 49.8856471,88.3826526 52.3008403,88.3826526 C53.8926723,88.3826526 55.3492101,87.7812632 56.3844034,87.1802526 L56.3844034,89.2652211 C55.5788235,89.6790316 54.0650756,90.2610947 52.1094958,90.2610947 C48.2760336,90.2610947 45.8225714,88.0628211 45.8225714,84.3805895" id="Fill-10" fill="#FFFFFE"></path>
                        <polyline id="Fill-11" fill="#FFFFFE" points="58.0272605 88.3072421 59.5989916 88.3072421 59.5989916 80.3209263 58.0272605 80.3209263 58.0272605 78.5925474 63.4135126 78.5925474 63.4135126 80.3209263 61.8216807 80.3209263 61.8216807 83.4214737 67.3617815 83.4214737 67.3617815 80.3209263 65.7703361 80.3209263 65.7703361 78.5925474 71.1565882 78.5925474 71.1565882 80.3209263 69.5844706 80.3209263 69.5844706 88.3072421 71.1565882 88.3072421 71.1565882 90.0356211 65.7703361 90.0356211 65.7703361 88.3072421 67.3617815 88.3072421 67.3617815 85.2252632 61.8216807 85.2252632 61.8216807 88.3072421 63.4135126 88.3072421 63.4135126 90.0356211 58.0272605 90.0356211 58.0272605 88.3072421"></polyline>
                        <g id="Group-15" transform="translate(0.000000, 78.442105)">
                            <mask id="mask-2" fill="white">
                                <use xlink:href="#path-1"></use>
                            </mask>
                            <g id="Clip-13"></g>
                            <polyline id="Fill-12" fill="#FFFFFE" mask="url(#mask-2)" points="72.7202017 9.86513684 74.2911597 9.86513684 74.2911597 1.87882105 72.7202017 1.87882105 72.7202017 0.150442105 82.3419328 0.150442105 82.3419328 3.5136 80.2908739 3.5136 80.2908739 1.87882105 76.5150084 1.87882105 76.5150084 4.97936842 80.9039496 4.97936842 80.9039496 6.70774737 76.5150084 6.70774737 76.5150084 9.86513684 80.3488571 9.86513684 80.3488571 8.15494737 82.4188571 8.15494737 82.4188571 11.5935158 72.7202017 11.5935158 72.7202017 9.86513684"></polyline>
                            <polyline id="Fill-14" fill="#FFFFFE" mask="url(#mask-2)" points="0 27.2250947 1.43682353 27.2250947 1.72480672 19.2387789 0.268268908 19.2387789 0.268268908 17.5104 5.15547899 17.5104 8.0125042 25.1204211 10.8683697 17.5104 15.7555798 17.5104 15.7555798 19.2387789 14.299042 19.2387789 14.5870252 27.2250947 16.0238487 27.2250947 16.0238487 28.9534737 11.1165378 28.9534737 11.1165378 27.2250947 12.554521 27.2250947 12.2862521 19.5578526 8.93134454 27.9579789 7.09134454 27.9579789 3.73759664 19.5578526 3.46932773 27.2250947 4.90692437 27.2250947 4.90692437 28.9534737 0 28.9534737 0 27.2250947"></polyline>
                        </g>
                        <path d="M27.0449076,101.683326 C27.0449076,99.1280842 25.4155798,97.5493895 23.2493277,97.5493895 C21.0637479,97.5493895 19.454521,99.1280842 19.454521,101.683326 C19.454521,104.257516 21.0637479,105.798695 23.2493277,105.798695 C25.4155798,105.798695 27.0449076,104.257516 27.0449076,101.683326 Z M17.1726891,101.683326 C17.1726891,98.1689684 19.7030756,95.7270316 23.2493277,95.7270316 C26.7766387,95.7270316 29.3259664,98.1689684 29.3259664,101.683326 C29.3259664,105.197305 26.7766387,107.621053 23.2493277,107.621053 C19.7030756,107.621053 17.1726891,105.197305 17.1726891,101.683326 Z" id="Fill-16" fill="#FFFFFE"></path>
                        <polyline id="Fill-17" fill="#FFFFFE" points="30.4767395 105.6672 32.0476975 105.6672 32.0476975 97.6808842 30.4767395 97.6808842 30.4767395 95.9525053 34.3283697 95.9525053 39.9260672 103.863032 39.9260672 97.6808842 38.3539496 97.6808842 38.3539496 95.9525053 43.6060672 95.9525053 43.6060672 97.6808842 42.0343361 97.6808842 42.0343361 107.395579 40.0598151 107.395579 34.1571261 99.1280842 34.1571261 105.6672 35.7276975 105.6672 35.7276975 107.395579 30.4767395 107.395579 30.4767395 105.6672"></polyline>
                        <polyline id="Fill-18" fill="#FFFFFE" points="47.3289748 105.6672 49.0549412 105.6672 49.0549412 97.6808842 46.8697479 97.6808842 46.8697479 99.4289684 44.856958 99.4289684 44.856958 95.9525053 55.4756134 95.9525053 55.4756134 99.4289684 53.4628235 99.4289684 53.4628235 97.6808842 51.2776303 97.6808842 51.2776303 105.6672 53.0032101 105.6672 53.0032101 107.395579 47.3289748 107.395579 47.3289748 105.6672"></polyline>
                        <path d="M63.4734286,102.378316 L61.7486218,98.0571789 L60.0427563,102.378316 L63.4734286,102.378316 Z M55.1926555,105.6672 L56.5734286,105.6672 L59.8699664,97.6808842 L58.2792941,97.6808842 L58.2792941,95.9525053 L63.0524706,95.9525053 L67.0579496,105.6672 L68.4572773,105.6672 L68.4572773,107.395579 L63.2248739,107.395579 L63.2248739,105.6672 L64.7583361,105.6672 L64.1448739,104.107832 L59.3523697,104.107832 L58.7389076,105.6672 L60.2723697,105.6672 L60.2723697,107.395579 L55.1926555,107.395579 L55.1926555,105.6672 Z" id="Fill-19" fill="#FFFFFE"></path>
                        <path d="M68.9741008,101.740168 C68.9741008,98.1128842 71.2748739,95.7270316 75.3387227,95.7270316 C77.2162185,95.7270316 78.9421849,96.2336842 79.9391092,96.7410947 L79.9391092,99.6915789 L77.849395,99.6915789 L77.849395,97.9256842 C77.1590084,97.7187789 76.2962185,97.5312 75.3959328,97.5312 C72.7314118,97.5312 71.2176639,99.1087579 71.2176639,101.702653 C71.2176639,104.464421 72.9424706,105.780126 75.4342017,105.780126 C76.2776639,105.780126 77.082084,105.611116 77.849395,105.366316 L77.849395,102.942947 L75.4144874,102.942947 L75.4144874,101.250947 L80.8780504,101.250947 L80.8780504,102.942947 L79.919395,102.942947 L79.919395,106.513011 C79.0376639,107.001095 77.3890084,107.621053 75.3190084,107.621053 C71.5044874,107.621053 68.9741008,105.535705 68.9741008,101.740168" id="Fill-20" fill="#FFFFFE"></path>
                        <polyline id="Fill-21" fill="#FFFFFE" points="82.0632269 105.6672 83.6337983 105.6672 83.6337983 97.6808842 82.0632269 97.6808842 82.0632269 95.9525053 91.684958 95.9525053 91.684958 99.3156632 89.6335126 99.3156632 89.6335126 97.6808842 85.8576471 97.6808842 85.8576471 100.781432 90.2469748 100.781432 90.2469748 102.509811 85.8576471 102.509811 85.8576471 105.6672 89.6918824 105.6672 89.6918824 103.957011 91.7618824 103.957011 91.7618824 107.395579 82.0632269 107.395579 82.0632269 105.6672"></polyline>
                    </g>
                </g>
            </g>
        </g>
    </g>
</svg>